<svg xmlns="http://www.w3.org/2000/svg" version="1.1" xmlns:xlink="http://www.w3.org/1999/xlink" xmlns:svgjs="http://svgjs.dev/svgjs" width="1000" height="999" viewBox="0 0 1000 999"><g transform="matrix(1,0,0,1,-0.2157434402332683,-0.21552769679306039)"><svg viewBox="0 0 343 343" data-background-color="#c8c8c8" preserveAspectRatio="xMidYMid meet" height="999" width="1000" xmlns="http://www.w3.org/2000/svg" xmlns:xlink="http://www.w3.org/1999/xlink"><g id="tight-bounds" transform="matrix(1,0,0,1,0.07400000000001228,0.07400000000001228)"><svg viewBox="0 0 342.8515585177538 342.8515585177538" height="342.8515585177538" width="342.8515585177538"><g><svg></svg></g><g><svg viewBox="0 0 342.8515585177538 342.8515585177538" height="342.8515585177538" width="342.8515585177538"><g><path d="M0 171.426c0-94.676 76.75-171.426 171.426-171.426 94.676 0 171.426 76.75 171.426 171.426 0 94.676-76.75 171.426-171.426 171.426-94.676 0-171.426-76.75-171.426-171.426zM171.426 338.109c92.057 0 166.683-74.627 166.683-166.683 0-92.057-74.627-166.683-166.683-166.683-92.057 0-166.683 74.627-166.683 166.683 0 92.057 74.627 166.683 166.683 166.683z" data-fill-palette-color="tertiary" fill="#000000" stroke="transparent"></path><ellipse rx="164.56874808852183" ry="164.56874808852183" cx="171.4257792588769" cy="171.4257792588769" fill="#000000" stroke="transparent" stroke-width="0" fill-opacity="1" data-fill-palette-color="tertiary"></ellipse></g><g transform="matrix(1,0,0,1,64.84655864529836,102.58395183361488)"><svg viewBox="0 0 213.15844122715708 137.68365485052405" height="137.68365485052405" width="213.15844122715708"><g><svg viewBox="0 0 213.15844122715708 137.68365485052405" height="137.68365485052405" width="213.15844122715708"><g><svg viewBox="0 0 213.15844122715714 137.68365485052408" height="137.68365485052405" width="213.15844122715708"><g transform="matrix(1,0,0,1,0,85.09402229191078)"><svg viewBox="0 0 213.15844122715714 52.589632558613296" height="52.589632558613296" width="213.15844122715714"><g id="textblocktransform"><svg viewBox="0 0 213.15844122715714 52.589632558613296" height="52.589632558613296" width="213.15844122715714" id="textblock"><g><svg viewBox="0 0 213.15844122715714 52.589632558613296" height="52.589632558613296" width="213.15844122715714"><g transform="matrix(1,0,0,1,0,0)"><svg width="213.15844122715714" viewBox="1.149999976158142 -40.43000030517578 170.98001098632812 42.189998626708984" height="52.589632558613296" data-palette-color="#c8c8c8"><path d="M4.15-8.79L4.15-8.79 1.15-8.79 1.15-10.55 4.15-10.55Q5.44-10.55 6.32-11.52 7.2-12.5 7.2-14.11L7.2-14.11 7.2-40.43 8.96-40.43 8.96-14.11Q8.96-11.79 7.57-10.29 6.18-8.79 4.15-8.79ZM4.15-5.27L4.15-5.27 1.15-5.27 1.15-7.03 4.15-7.03Q6.88-7.03 8.8-9.11 10.72-11.18 10.72-14.11L10.72-14.11 10.72-40.43 12.48-40.43 12.48-14.11Q12.48-10.45 10.05-7.86 7.62-5.27 4.15-5.27ZM4.15-1.76L4.15-1.76 1.15-1.76 1.15-3.52 4.15-3.52Q8.35-3.52 11.29-6.62 14.23-9.72 14.23-14.11L14.23-14.11 14.23-40.43 15.99-40.43 15.99-14.11Q15.99-10.77 14.42-7.92 12.84-5.08 10.11-3.42 7.37-1.76 4.15-1.76ZM4.15 1.76L4.15 1.76 1.15 1.76 1.15 0 4.15 0Q6.93 0 9.45-1.12 11.96-2.25 13.78-4.14 15.6-6.03 16.67-8.64 17.75-11.25 17.75-14.11L17.75-14.11 17.75-40.43 19.51-40.43 19.51-14.11Q19.51-10.89 18.3-7.96 17.09-5.03 15.03-2.89 12.96-0.76 10.12 0.5 7.28 1.76 4.15 1.76ZM52.46-17.77L52.46-17.77 52.46-40.43 54.22-40.43 54.22-17.77Q54.22-14.06 51.29-11.43 48.36-8.79 44.26-8.79 40.16-8.79 37.23-11.43 34.3-14.06 34.3-17.77L34.3-17.77 34.3-40.43 36.06-40.43 36.06-17.77Q36.06-14.79 38.46-12.67 40.87-10.55 44.26-10.55 47.65-10.55 50.06-12.67 52.46-14.79 52.46-17.77ZM55.98-17.77L55.98-17.77 55.98-40.43 57.74-40.43 57.74-17.77Q57.74-15.23 56.66-12.93 55.59-10.62 53.78-8.94 51.98-7.25 49.48-6.26 46.99-5.27 44.26-5.27 41.53-5.27 39.04-6.26 36.55-7.25 34.74-8.94 32.93-10.62 31.86-12.93 30.78-15.23 30.78-17.77L30.78-17.77 30.78-40.43 32.54-40.43 32.54-17.77Q32.54-14.87 34.12-12.39 35.69-9.91 38.39-8.47 41.09-7.03 44.26-7.03 47.43-7.03 50.13-8.47 52.83-9.91 54.4-12.39 55.98-14.87 55.98-17.77ZM59.49-17.77L59.49-17.77 59.49-40.43 61.25-40.43 61.25-17.77Q61.25-14.53 59.9-11.56 58.54-8.59 56.27-6.45 54-4.3 50.85-3.03 47.7-1.76 44.26-1.76 40.82-1.76 37.67-3.03 34.52-4.3 32.25-6.45 29.98-8.59 28.62-11.56 27.27-14.53 27.27-17.77L27.27-17.77 27.27-40.43 29.03-40.43 29.03-17.77Q29.03-13.92 31.08-10.63 33.13-7.35 36.63-5.43 40.13-3.52 44.26-3.52 48.39-3.52 51.89-5.43 55.39-7.35 57.44-10.63 59.49-13.92 59.49-17.77ZM63.01-17.77L63.01-17.77 63.01-40.43 64.77-40.43 64.77-17.77Q64.77-12.5 62.01-8 59.25-3.49 54.53-0.87 49.8 1.76 44.26 1.76 38.72 1.76 33.99-0.87 29.27-3.49 26.51-8 23.75-12.5 23.75-17.77L23.75-17.77 23.75-40.43 25.51-40.43 25.51-17.77Q25.51-14.18 27-10.89 28.49-7.59 31-5.21 33.52-2.83 37-1.42 40.48 0 44.26 0 48.04 0 51.52-1.42 55-2.83 57.52-5.21 60.03-7.59 61.52-10.89 63.01-14.18 63.01-17.77ZM94.84-38.67L68.48-38.67 68.48-40.43 94.84-40.43 94.84-38.67ZM94.84-35.16L68.48-35.16 68.48-36.91 94.84-36.91 94.84-35.16ZM75.51-31.64L68.48-31.64 68.48-33.4 94.84-33.4 94.84-31.64 87.81-31.64 87.81 0 86.05 0 86.05-31.64 84.3-31.64 84.3 0 82.54 0 82.54-31.64 80.78-31.64 80.78 0 79.02 0 79.02-31.64 77.27-31.64 77.27 0 75.51 0 75.51-31.64ZM124.41-38.67L98.04-38.67 98.04-40.43 124.41-40.43 124.41-38.67ZM124.41-35.16L98.04-35.16 98.04-36.91 124.41-36.91 124.41-35.16ZM105.07-31.64L98.04-31.64 98.04-33.4 124.41-33.4 124.41-31.64 117.38-31.64 117.38 0 115.62 0 115.62-31.64 113.86-31.64 113.86 0 112.1 0 112.1-31.64 110.34-31.64 110.34 0 108.59 0 108.59-31.64 106.83-31.64 106.83 0 105.07 0 105.07-31.64ZM153.26-11.87L145.84-11.87 146.55-13.62 152.55-13.62 153.26-11.87ZM154.68-8.35L144.47-8.35 145.16-10.11 153.92-10.11 154.68-8.35ZM156.04-4.83L143.11-4.83 143.79-6.59 155.31-6.59 156.04-4.83ZM143.86-38.06L128.82 0 126.92 0 142.91-40.43 144.81-40.43 160.78 0 158.9 0 143.86-38.06ZM130.7 0L144.08-33.89 145.08-31.64 132.58 0 130.7 0ZM134.49 0L146.03-29.25 146.96-26.83 136.39 0 134.49 0ZM138.27 0L147.89-24.41 148.82-21.95 140.15 0 138.27 0ZM156.14-40.43L172.13 0 170.23 0 154.26-40.43 156.14-40.43ZM150.48-40.43L152.36-40.43 168.35 0 166.47 0 150.48-40.43ZM146.69-40.43L148.57-40.43 164.57 0 162.66 0 146.69-40.43Z" opacity="1" transform="matrix(1,0,0,1,0,0)" fill="#c8c8c8" class="undefined-text-0" data-fill-palette-color="quaternary" id="text-0"></path></svg></g></svg></g></svg></g></svg></g><g transform="matrix(1,0,0,1,72.1514756794383,0)"><svg viewBox="0 0 68.85548986828051 72.67887219600358" height="72.67887219600358" width="68.85548986828051"><g><svg xmlns="http://www.w3.org/2000/svg" xmlns:xlink="http://www.w3.org/1999/xlink" version="1.1" x="0" y="0" viewBox="6.262999534606934 5.677000045776367 87.52400207519531 92.38400268554688" enable-background="new 0 0 100 100" xml:space="preserve" height="72.67887219600358" width="68.85548986828051" class="icon-icon-0" data-fill-palette-color="quaternary" id="icon-0"><g fill="#c8c8c8" data-fill-palette-color="quaternary"><g fill="#c8c8c8" data-fill-palette-color="quaternary"><path fill="#c8c8c8" d="M83.049 46.044h-18.99c-5.916 0-10.731 4.894-10.731 10.911v1.917c-4.713 2.882-23.611 6.236-36.49 7.813-6.041 0.082-10.574 4.67-10.574 10.732v9.286c0 6.264 4.815 11.358 10.731 11.358h66.055c5.922 0 10.737-5.095 10.737-11.358V56.955C93.786 50.938 88.971 46.044 83.049 46.044zM83.049 93.108H16.994c-1.936 0-3.649-1.062-4.696-2.687H87.75C86.698 92.046 84.987 93.108 83.049 93.108zM88.83 86.704c0 0.426-0.038 0.838-0.109 1.239H75.685c0.401-5.105 2.982-9.013 7.689-11.621 1.963-1.087 3.948-1.738 5.456-2.123V86.704zM88.83 71.667c-4.696 1.104-14.846 4.812-15.637 16.276H11.327c-0.07-0.401-0.113-0.813-0.113-1.239v-9.286c0-3.346 2.432-5.778 5.78-5.778l0.301-0.019c0.084-0.009 8.642-1.058 17.689-2.706 16.965-3.083 21.005-5.521 22.569-7.085l0.727-0.725v-2.6c1.354 2.218 4.558 7.865 4.558 11.757 0 0.745 0.603 1.347 1.346 1.347 0.742 0 1.345-0.602 1.345-1.347 0-2.929-1.41-6.483-2.814-9.306 1.418 1.128 2.83 2.102 3.782 2.356 0.458 0.121 0.93 0.184 1.404 0.184 2.427 0 4.561-1.635 5.192-3.979 0.374-1.392 0.185-2.842-0.531-4.087-0.722-1.247-1.879-2.139-3.268-2.511-0.377-0.103-0.832-0.148-1.401-0.148-2.657 0-7.457 1.114-8.953 1.478 0.963-1.923 2.885-3.251 5.119-3.251h18.99c3.188 0 5.781 2.673 5.781 5.957V71.667zM61.548 56.41c1.981-0.432 4.712-0.949 6.345-0.949 0.441 0 0.64 0.041 0.702 0.057 0.694 0.188 1.274 0.632 1.632 1.256 0.361 0.623 0.453 1.348 0.269 2.044-0.377 1.402-1.876 2.27-3.3 1.898C66.314 60.477 63.874 58.527 61.548 56.41z" data-fill-palette-color="quaternary"></path></g><g fill="#c8c8c8" data-fill-palette-color="quaternary"><path fill="#c8c8c8" d="M56.732 64.785c-11.768 6.738-34.483 7.497-34.711 7.505-0.687 0.022-1.224 0.592-1.204 1.274 0.021 0.67 0.572 1.201 1.236 1.201 0.017 0 0.027 0 0.041 0 0.957-0.029 23.559-0.783 35.868-7.83 0.592-0.339 0.798-1.099 0.461-1.689C58.082 64.649 57.326 64.443 56.732 64.785z" data-fill-palette-color="quaternary"></path></g><g fill="#c8c8c8" data-fill-palette-color="quaternary"><path fill="#c8c8c8" d="M83.049 5.677H16.994c-5.916 0-10.731 5.095-10.731 11.358v29.749c0 6.017 4.815 10.911 10.731 10.911h18.99c5.922 0 10.737-4.895 10.737-10.911v-1.919c4.707-2.879 23.608-6.233 36.49-7.812 6.038-0.081 10.574-4.672 10.574-10.731v-9.287C93.786 10.772 88.971 5.677 83.049 5.677zM16.994 10.631h66.055c1.938 0 3.649 1.063 4.701 2.684H12.298C13.345 11.694 15.059 10.631 16.994 10.631zM11.214 17.035c0-0.426 0.043-0.838 0.113-1.242h13.036c-0.406 5.108-2.982 9.015-7.691 11.624-1.966 1.087-3.948 1.738-5.458 2.123V17.035zM88.83 26.322c0 3.346-2.43 5.778-5.781 5.778l-0.298 0.019c-0.087 0.005-8.639 1.057-17.689 2.706-16.962 3.083-21.008 5.52-22.569 7.084l-0.727 0.721v2.603c-1.355-2.218-4.556-7.866-4.556-11.756 0-0.746-0.602-1.348-1.348-1.348-0.742 0-1.345 0.602-1.345 1.348 0 2.925 1.407 6.483 2.814 9.305-1.418-1.128-2.83-2.101-3.782-2.356-2.814-0.754-5.84 0.995-6.597 3.796-0.371 1.391-0.185 2.841 0.534 4.086 0.716 1.248 1.876 2.139 3.265 2.511 0.374 0.103 0.835 0.149 1.401 0.149 2.654 0 7.454-1.115 8.95-1.478-0.959 1.923-2.879 3.251-5.119 3.251h-18.99c-3.186 0-5.78-2.673-5.78-5.957V32.072c4.698-1.104 14.848-4.815 15.639-16.279h61.868c0.071 0.404 0.109 0.816 0.109 1.242V26.322zM38.495 47.33c-1.979 0.431-4.712 0.946-6.342 0.946-0.441 0-0.637-0.038-0.702-0.054-0.694-0.188-1.274-0.635-1.632-1.255-0.358-0.624-0.456-1.348-0.266-2.044 0.314-1.174 1.383-1.99 2.592-1.99 0.235 0 0.472 0.032 0.705 0.092C33.734 43.262 36.175 45.212 38.495 47.33z" data-fill-palette-color="quaternary"></path></g><g fill="#c8c8c8" data-fill-palette-color="quaternary"><path fill="#c8c8c8" d="M77.989 28.973c-0.011 0-0.024 0-0.038 0-0.954 0.03-23.559 0.784-35.866 7.831-0.596 0.339-0.802 1.098-0.461 1.689 0.339 0.596 1.096 0.802 1.692 0.461 11.768-6.741 34.483-7.497 34.711-7.505 0.684-0.021 1.221-0.591 1.198-1.274C79.207 29.505 78.656 28.973 77.989 28.973z" data-fill-palette-color="quaternary"></path></g></g></svg></g></svg></g><g></g></svg></g></svg></g></svg></g></svg></g><defs></defs></svg><rect width="342.8515585177538" height="342.8515585177538" fill="none" stroke="none" visibility="hidden"></rect></g></svg></g></svg>